<svg id="Layer_1" data-name="Layer 1" xmlns="http://www.w3.org/2000/svg" viewBox="0 0 1003.04 617.91">
<defs>
<style>.cls-1{fill:#1a2340;stroke:#1a2340;stroke-width:2px;}.cls-1,.cls-2,.cls-4{stroke-miterlimit:10;}.cls-2{fill:none;stroke:#efdc7e;stroke-width:5px;}.cls-3,.cls-4,.cls-5{fill:#fff;}.cls-4{stroke:#fff;stroke-width:4px;}.cls-5{font-size:70.99px;font-family:LEMON MILK;letter-spacing:0.67px;}.cls-6{letter-spacing:10.68px;}</style></defs>
<title>joao waise2 </title>
<path class="cls-2" d="M365.28,354.34" transform="translate(11.54 -2.05)"/><path class="cls-3" d="M421.08,228.91V344.76c0,12.87,20,12.89,20,0V228.91c0-12.87-20-12.89-20,0h0Z" transform="translate(11.54 -2.05)"/><path class="cls-3" d="M380,209.58V313.21c0,12.87,20,12.89,20,0V209.58c0-12.87-20-12.89-20,0h0Z" transform="translate(11.54 -2.05)"/>
<path class="cls-3" d="M617.83,353.54V268.48c0-12.87-20-12.89-20,0v85.06c0,12.87,20,12.89,20,0h0Z" transform="translate(11.54 -2.05)"/>
<path class="cls-3" d="M603.29,258.48H554.15c-12.87,0-12.89,20,0,20h49.15c12.87,0,12.89-20,0-20h0Z" transform="translate(11.54 -2.05)"/>
<path class="cls-3" d="M597.71,303.21H564.89c-12.87,0-12.89,20,0,20h32.82c12.87,0,12.89-20,0-20h0Z" transform="translate(11.54 -2.05)"/>
<path class="cls-4" d="M556.52,274.55a15.59,15.59,0,1,1,1.22-6.07,15.59,15.59,0,0,1-1.22,6.07" transform="translate(11.54 -2.05)"/><text class="cls-5" transform="translate(325.27 433.97) scale(1.5 1)">W<tspan class="cls-6" x="67.82" y="0">aise</tspan></text><path class="cls-3" d="M342,243.19v97.93c0,12.87,20,12.89,20,0V243.19c0-12.87-20-12.89-20,0h0Z" transform="translate(11.54 -2.05)"/>
<path class="cls-4" d="M545.29,360.7a15.59,15.59,0,1,1,1.22-6.07,15.59,15.59,0,0,1-1.22,6.07" transform="translate(11.54 -2.05)"/>
<path class="cls-3" d="M431.33,271.9c15.63-.67,31.56-4.68,44.72-13.37,11.73-7.74,20.29-18.88,31-27.84,11.27-9.46,25-15.83,39.15-19.55A125.56,125.56,0,0,1,561,208.19c-2.31.32,1.95-.2,2.83-0.28a114.72,114.72,0,0,1,12.3-.54c19.5,0.21,40.82,5.72,56.91,16.69,0.81,0.55,1.61,1.12,2.4,1.7L637,227c1,0.77-1.56-1.24-.5-0.39l1.09,0.86c3.2,2.62,6.31,5.32,9.29,8.19a133.53,133.53,0,0,1,20.65,25.23c17.16,27.27,23.08,59.06,14.87,90.39-3.27,12.46,16,17.78,19.29,5.32,8.23-31.4,4.63-63.49-9.55-92.61a151.87,151.87,0,0,0-44.3-53.69c-14.06-10.74-31.87-17.32-49.11-20.54a132.48,132.48,0,0,0-81.51,10.92c-16.67,8-28.88,20.35-42,33-12,11.56-27.26,17.6-43.89,18.31-12.82.55-12.89,20.55,0,20h0Z" transform="translate(11.54 -2.05)"/>
<path class="cls-3" d="M691.9,344.55l-131.18.08H542.17c-12.87,0-12.89,20,0,20l131.18-.08H691.9c12.87,0,12.89-20,0-20h0Z" transform="translate(11.54 -2.05)"/>
<path class="cls-3" d="M438,251.4H326.87c-12.87,0-12.89,20,0,20H438c12.87,0,12.89-20,0-20h0Z" transform="translate(11.54 -2.05)"/>
</svg>